<svg xmlns="http://www.w3.org/2000/svg" viewBox="-100 0 600 400">
  <g fill="#D82828">
    <path d="M375.253 176.109a52.257 52.257 0 0 0-40.465-22.922 52.25 52.25 0 0 0-42.703 18.411 54.832 54.832 0 0 0-8.854 12.777 66.695 66.695 0 0 0-5.336 14.113h-32.143a12.977 12.977 0 0 1-1.527-3.83c-4.374-17.183-15.092-29.468-31.346-36.239-31.292-13.039-65.257 4.257-74.008 37.23-.574 2.165-.147 4.617-3.81 5.12-15.17 2.088-32.294-6.597-39.483-20.452-4.848-9.341-4.591-10.154 5.829-11.463 43.253-5.435 78.574-49.376 63.623-100.334-10.833-36.92-51.274-60.88-89.153-53.03-35.709 7.401-60.92 37.19-62.789 74.187-1.717 34.035 21.811 66.566 55.976 76.677 5.147 1.523 6.31 3.802 6.285 8.746-.176 34.507-.334 69.019.043 103.522.35 31.914 23.747 57.894 55.098 61.26 5.908.632 7.905 2.72 9.388 8.205 5.84 21.635 25.258 37.024 47.873 38.74 22.205 1.782 43.211-10.308 52.833-30.41 13.822-29.643.131-63.495-30.215-74.712-30.059-11.11-62.769 6.112-71.066 37.855-1.42 5.43-3.804 5.765-8.342 5.013-23.293-3.858-39.467-22.426-40.117-46.65-.262-9.727-.063-19.466-.066-29.199-.004-15.418 0-30.84 0-48.036 7.501 5.753 13.817 10.082 21.245 12.602a63.418 63.418 0 0 0 22.884 2.906c3.73-.13 3.419 2.678 4.004 4.877 4.002 15.034 12.438 26.761 26.033 34.489a53.957 53.957 0 0 0 47.868 2.988 54.001 54.001 0 0 0 31.352-36.314 12.182 12.182 0 0 1 1.55-3.749h32.68a28.865 28.865 0 0 0 1.107 5.214c6.75 24.316 29.038 39.817 54.523 38.951 20.445-.694 43.484-13.574 50.53-42.356a52.773 52.773 0 0 0-9.301-44.189v.002ZM191.86 294.108a38.36 38.36 0 0 1 27.478 11.22 38.4 38.4 0 0 1 11.26 27.473c.047 15.715-9.38 29.907-23.879 35.949a38.778 38.778 0 0 1-42.323-8.363 38.827 38.827 0 0 1-8.427-42.331 38.793 38.793 0 0 1 35.891-23.948ZM29.065 91.504c.275-34.056 27.977-61.502 62.017-61.443 34.04.06 61.646 27.602 61.803 61.659a61.95 61.95 0 0 1-30.936 53.917 61.884 61.884 0 0 1-62.137-.109 61.949 61.949 0 0 1-30.747-54.024Zm162.53 155.631c-21.32-.195-38.453-17.63-38.287-38.96.166-21.331 17.568-38.497 38.888-38.36 21.32.136 38.502 17.524 38.395 38.855a38.631 38.631 0 0 1-11.5 27.349 38.589 38.589 0 0 1-27.495 11.116Zm122.926-3.827c-17.846-8.559-26.434-29.15-19.964-47.86 6.471-18.711 25.942-29.588 45.258-25.282 19.315 4.306 32.329 22.425 30.247 42.114-2.08 19.69-18.595 34.684-38.383 34.853-.36 0-.719-.015-1.078-.024a41.34 41.34 0 0 1-16.08-3.803v.002Z"/>
    <path d="M122.02 79.132a1082.784 1082.784 0 0 0-38.668-24.4C71.828 47.76 59.42 54.796 59.095 68.3c-.192 7.96-.036 15.929-.026 23.893.01 8.186-.145 16.375.045 24.556.295 12.694 12.458 19.98 23.323 13.644a886.04 886.04 0 0 0 39.437-24.403c10.77-7.054 10.796-19.82.147-26.86l-.001.002Zm-10.585 15.169a28765.95 28765.95 0 0 0-33.27 20.626c-1.923 1.193-3.41 1.31-3.415-1.552-.024-14.764-.01-29.528-.01-45.69 12.999 8.18 24.898 15.658 36.781 23.16 1.8 1.138 1.747 2.322-.086 3.457v-.001ZM175.359 341c4.705-.308 7.574-2.97 7.754-7.392a6.964 6.964 0 0 0-1.816-5.514 6.94 6.94 0 0 0-5.358-2.214c-4.924-.19-7.88 2.56-7.95 7.558-.069 4.776 2.954 6.979 7.37 7.562Zm31.51-.094c4.55-.674 7.466-3.119 7.223-7.885-.238-4.687-3.205-7.353-7.874-7.135-4.629.217-7.472 3.091-7.278 7.768.195 4.681 3.285 6.98 7.93 7.252Zm144.104-136.309c1.775-1.772 3.205-3.678 3.009-6.57a6.79 6.79 0 0 0-4.193-6.728 7.065 7.065 0 0 0-8.562 1.39 154.784 154.784 0 0 0-11.718 11.733c-4.188 4.928-7.638 7.242-12.77.843-3.018-3.762-7.581-3.688-11.087-.016-3.295 3.448-2.762 7.367.28 10.73 3.258 3.606 6.74 7.03 10.288 10.355 4.91 4.601 8.249 4.61 13.154-.164 7.293-7.094 14.4-14.382 21.6-21.573Zm-140.559-13.14a7.016 7.016 0 0 0-8.614.95 146.985 146.985 0 0 0-11.351 11.116c-4.35 4.882-8.068 8.705-13.899 1.394-2.848-3.574-7.312-3.071-10.563.254-3.32 3.392-2.98 7.29.122 10.681 3.427 3.745 7.123 7.245 10.735 10.813 4.32 4.267 8.551 3.845 12.694-.307A14890.88 14890.88 0 0 1 211.08 204.8c1.923-1.921 3.572-3.956 3.273-6.868a6.893 6.893 0 0 0-3.94-6.477Z"/>
  </g>
</svg>