<svg xmlns="http://www.w3.org/2000/svg" viewBox="0 64 256 128">
  <path fill="#D82828" d="M228.176 79.712a61.048 61.048 0 0 1 15.468 17.553 60.944 60.944 0 0 1 0 61.6c-11.14 19.03-31.694 30.593-53.78 30.259-17.853 0-32.343-8.522-45.018-19.404l-.19-19.55a4 4 0 0 1 3.899-4.037l20.84-.524c6.924 5.605 13.637 9.22 20.47 9.22 14.819 0 26.832-11.986 26.832-26.77h.042c0-6.508-2.374-12.77-6.645-17.636l16.927-1.912a4 4 0 0 0 3.532-4.362ZM61.914 67.088 46.134 84.89a4 4 0 0 0 .294 5.605l12.397 11.337c-12.226 2.496-21.424 13.29-21.424 26.226 0 14.785 12.014 26.77 26.833 26.77 8.653 0 17.64-6.303 26.612-14.627l17.418 2.276a4 4 0 0 1 3.455 4.423l-2.654 23.086c-12.596 10.763-27.005 19.138-44.79 19.138C30.84 188.617 4 161.429 4 128.065c0-32.574 25.584-59.261 57.914-60.977Zm127.95-.08a61.28 61.28 0 0 1 33.383 9.282l2.23 22.936a4 4 0 0 1-3.532 4.362l-17.49 1.975a26.877 26.877 0 0 0-14.59-4.275c-11.61 0-23.377 10.916-35.713 23.634l-.862.89c-.719.744-1.44 1.493-2.163 2.246 4.205 4.366 8.256 8.54 12.21 12.24l-19.41.488a4 4 0 0 0-3.898 4.038l.201 20.768c-4.58-4.251-8.932-8.726-13.138-13.102-3.824 3.99-7.766 8.058-11.891 11.962l2.458-21.39a4 4 0 0 0-3.456-4.423l-19.125-2.499c.826-.816 1.651-1.643 2.475-2.479l.838-.852c.977-.997 1.953-2.004 2.926-3.015l1.251-1.301.417-.435.042.014c-13.73-14.264-25.673-26.3-38.002-26.77l-11.53-10.544a4 4 0 0 1-.294-5.605l15.902-17.937c21.44 1.869 37.88 15.97 52.323 30.6l1.042 1.06a623.736 623.736 0 0 1 4.61 4.765c16.833-17.57 35.955-36.634 62.787-36.634Z"/>
</svg>